<?xml version="1.0" encoding="utf-8"?>
<!-- Generator: Adobe Illustrator 22.0.1, SVG Export Plug-In . SVG Version: 6.00 Build 0)  -->
<svg version="1.1" id="Layer_1" xmlns="http://www.w3.org/2000/svg" xmlns:xlink="http://www.w3.org/1999/xlink" x="0px" y="0px"
	 viewBox="0 0 1440 1080" style="enable-background:new 0 0 1440 1080;" xml:space="preserve">
<style type="text/css">
	.st0{fill:#FFFFFF;}
</style>
<g>
	<path class="st0" d="M710.5,977c1.4,0.2,2.9,0.4,4.3,0.7c-0.4-0.6-0.9-1-1.5-1.4c-2.5-1.7-5.1-3.4-7.5-5.3
		c-1.8-1.5-4.1-3.1-3.6-5.8c0.6-2.7,3.3-3.3,5.6-3.7c5.4-1,10.8-1.8,16.3-2.7c3.2-0.5,6.3-1.1,10.2-1.7c-2.6,6.2-5,12-7.3,17.8
		c4.6-3.6,9-7.6,11.6-13.3c3.2-7.2-0.5-13-8.4-13.1c-5.6-0.1-10.5,2-15,5c-1.9,1.3-3.7,2.7-5.5,4.1c-1.4-1.2-2.7-2.5-4.2-3.4
		c-2.3-1.4-4.7-3-7.2-3.9c-3.1-1.1-5,0.6-5.2,3.8c0,1,0,1.9,0.2,2.9c1.1,5.3,3.7,10,7.8,13.5C704,973.2,707.4,975,710.5,977
		c-3.9-0.7-7.7-1.5-11.6-2.2c-0.8-0.1-1.6-0.1-2.4,0.1c-4.4,1.5-8.1,7.2-7.7,12.4c2.2-6,6.9-8.2,12.4-9.2
		C704.3,977.6,707.4,977.4,710.5,977z M619.2,445.5c-1.5-1.2-2.6-2.4-4-3.2c-5.7-3.4-12.3-1.6-16.5,4.5c-1.3,2-2.6,2.2-4.8,1.9
		c-13.3-2.2-23.9-9.1-31.8-19.8c-6.1-8.3-11.4-17.2-16.8-26c-4.9-8-9.5-16.2-16-23.1c-1.6-1.8-3.4-3.2-5.8-4c-2-0.7-3.9-1.8-5.8-2.9
		c-10.2-6.1-17.5-14.9-23.8-24.7c-10.7-16.4-18.1-34.4-24.6-52.8c-0.6-1.7-1.8-3.5-3.1-4.7c-6.3-6-14.6-7.3-22.4-9.4
		c3.1,2.4,6.5,4.6,9.5,7.2c6.6,6,10.4,13.8,13.4,22.1c3.1,8.6,5.8,17.3,9,25.9c3.6,9.7,9,18.4,18.1,23.9c4.3,2.6,7.4,6,10.7,9.6
		c6.3,7,13.2,13.5,20.1,19.9c9.9,9.2,19.3,18.8,24.8,31.5c0.2,0.5,0.6,0.9,1,1.2c9.8,8.2,19.5,16.4,29.4,24.4
		c5.6,4.5,11.5,8.6,18.6,10.4c6.1,1.6,10.7-0.3,14.4-5.4c0.5-0.7,1.6-1.1,2.4-1.5c1.4-0.7,2.9-1.3,4.4-2
		c6.1,17.8,6.9,19.4,13.8,29.6c8.6,12.5,18.5,24.1,24.8,38.1c0.1-0.3,0.1-0.6,0-0.9c-2.7-11.6-4.3-23.4-5-35.3
		c-1.5-22.8-0.4-45.5,1.1-68.3c0.2-3.4,0.4-6.7,0.6-10.1c-0.3-0.1-0.5-0.1-0.8-0.2c-0.6,1.7-1.5,3.3-1.9,5
		c-4.1,21.1-6.4,42.2-2.1,63.6c0.7,3.6,0.5,7.4,0.2,11.1c-0.2,2.6-2.3,3.6-4.6,2.4c-1.9-1-3.8-2.4-5.4-3.9c-6-6-10.4-13.2-13.7-21
		c-1.1-2.6-2.2-5.3-2.5-8c-1.3-10-0.6-20,1.5-29.9c2.7-12.9,7.6-25.2,12.5-37.4c5.8-14.3,12-28.5,15.1-43.8
		c1.1-5.2,1.7-10.5,2.5-15.7c-0.2-0.1-0.4-0.2-0.6-0.3c-2.5,2.8-5.6,2.7-8.9,2c-11.4-2.7-23.7-15.9-25.4-27.5c-0.3-1.9,0-4-0.7-5.7
		c-1.5-4.2-3.3-8.3-5-12.4c-0.3-0.7-0.8-1.2-1.2-1.8c-0.2,0.1-0.3,0.2-0.5,0.3c0.1,0.7,0.1,1.4,0.2,2.1c1.9,11.5,5.4,22.5,9.5,33.4
		c1.1,3.1,2.6,5.3,6,6.4c2.5,0.8,4.8,2.4,7,3.9c6.4,4.5,9.9,10.7,9.8,18.6c-0.1,4.6-0.3,9.4-1.7,13.6c-3.4,10.3-7.4,20.4-11.4,30.4
		c-3.9,9.8-8.2,19.5-9.8,30c-0.4,2.6-0.1,5.3-0.9,7.7C619.7,431.4,618.6,438.2,619.2,445.5z M434.2,269.2c0.2-0.1,0.5-0.2,0.7-0.3
		c-0.1-0.6-0.1-1.3-0.2-1.9c-1.8-10.3-3.8-20.5-5.3-30.8c-1.3-9-2.1-17.9,0.6-27.1c3.6-11.8,7.9-23.2,13.9-34
		c6.5-11.8,13.5-23.5,19.8-35.4c7.5-14.2,12.5-29.2,12.5-45.6c0-0.8,0.5-1.9,1.1-2.5c3.9-4,7.7-8.1,11.7-11.9
		c8.7-8.3,17.7-16.2,28.4-21.9c7.8-4.1,15.9-7.2,25-2.7c-0.5-1.3-1-2.3-1.3-3.4c-1.1-3.5,0.1-5.7,3.7-6.4c1.9-0.3,3.9-0.6,5.8-0.3
		c9.4,1.4,18.8,2.8,28.2,4.4c7.6,1.3,15.3,3,23,1.8c4-0.6,7.4,0.1,11.1,1.1c2,0.5,4,1.1,6,1.6c19.2,4.8,38.6,7.9,58.5,7.6
		c0.8,0,1.5-0.1,2.3-0.1c-5.6-1.4-11.2-2.3-16.8-3.5c-21-4.6-41.9-9.4-62.9-13.8c-16.1-3.4-32.3-5-48.8-4.7
		c-6.1,0.1-11.7,1.3-17.2,4.4c-17.3,9.9-34.2,20.2-48.9,33.8c-15.9,14.7-27.9,31.8-33.9,52.8c-1.1,4-2.7,7.9-4.4,11.6
		c-10.5,22.9-19.4,46.4-21.9,71.7c-1.7,16.8-0.1,33.3,6.2,49.1C432,265,433.2,267.1,434.2,269.2z M1054.9,181.9c0.2,0,0.5,0,0.7-0.1
		c0.2-0.4,0.6-0.9,0.7-1.3c0.6-3,1.1-6,1.6-9c2.2-14.8-0.7-28.7-9-41.1c-13.7-20.4-33.3-30.7-57.6-32c-11.8-0.6-22.4,3-31.7,10.5
		c-5.6,4.5-10.2,9.9-13.8,15.9c-5.6,9.3-10.8,18.8-16.1,28.3c-6.3,11.1-13.4,21.6-23.9,29.4c-0.1,0.1-0.1,0.3-0.3,0.7
		c0.6-0.1,1.1-0.2,1.5-0.3c6.9-2,12.9-5.7,18.3-10.4c5.7-4.9,11.1-10.1,16.8-15c3.9-3.4,8.4-6,13.6-6.7c2.1-0.3,4.2,0,6.5,0
		c-0.3-1.1-0.5-1.8-0.7-2.5c-1.5-5.5-2.1-11-0.4-16.5c2.7-8.8,9.3-13.6,17.5-16.3c7.8-2.6,15.9-2.9,24-1.8
		c10.6,1.4,20.5,4.7,28.6,12c7,6.3,12.1,14.2,14.8,23.2c2.7,9.1,4.8,18.4,7.2,27.6C1053.7,178.2,1054.3,180,1054.9,181.9z
		 M1040.7,312c2.9-1.6,5.7-3.5,8.9-4.7c4.3-1.6,8.8-1.1,13.2-0.3c5.6,1,11.1,2.3,16.6,3.1c8,1.2,13.5-2.1,16.5-9.7
		c0.8-1.9,1.3-4,1.8-6c0.9-3.5,1.9-7,2.6-10.6c1.2-6,2.5-12.1,3.1-18.2c1-10.7-0.5-21.4-1.5-32c-1.2-12.1-2.8-24.2-1.6-36.5
		c1.1-11.2,4.7-21.4,12.4-30c0.5-0.6,0.9-1.9,0.6-2.7c-1.6-4.7-3.1-9.5-5.2-13.9c-8.5-17.3-20.7-32.1-33.5-46.3
		c-0.1-0.1-0.3-0.1-0.7-0.2c0.5,0.8,0.9,1.3,1.3,1.9c0.4,0.6,0.9,1.2,1.3,1.8c12,17.5,16.9,37.2,18.5,58c1.1,14.9,1.5,29.9,2.3,44.8
		c0.2,4.8,0.9,9.5,0.7,14.3c-0.4,10.2-1.1,20.4-2.1,30.5c-0.8,8.5-2.8,16.9-6.5,24.7c-6.2,12.8-17.1,18.6-31,16.3
		c-2.9-0.5-5.3,0.2-7.5,1.9C1045.9,301.8,1043.4,307.2,1040.7,312z M523.4,392.9c-0.2,0.1-0.3,0.1-0.5,0.2c0.1,0.6,0.2,1.2,0.3,1.7
		c6.4,30.8,15.4,60.9,26.5,90.4c4,10.7,8.8,21.1,12.5,31.9c4.7,14,8.8,28.2,13,42.4c5.4,18.5,10.6,37,18.9,54.5
		c5.2,11,11.3,21.6,17,32.3c0.1,0.1,0.3,0.2,0.8,0.5c-0.7-2.3-1.3-4.3-1.9-6.2c-4.2-12.8-8.4-25.5-12.4-38.4
		c-0.9-2.8-1.9-5.3-3.5-7.8c-8.1-13.3-13-27.8-16-43c-0.7-3.7-0.9-7.5-0.8-11.3c0-3.3,2.2-4.2,4.7-2.1c1.8,1.5,3.3,3.2,4.8,5
		c6.8,8.4,11.7,17.9,15.3,28c0.8,2.2,1.8,4.3,2.8,6.5c0.2-0.1,0.4-0.1,0.5-0.2c-0.1-0.8-0.2-1.6-0.4-2.3c-1-3.8-1.8-7.7-3-11.4
		c-0.9-2.9-2.1-5.7-3.7-8.3c-8.7-13.9-17.8-27.7-26.3-41.7c-8.6-14.2-15.2-29.3-18.8-45.6c-0.7-3-0.7-6.4-2.2-9
		c-8.6-15.3-14.8-31.6-20.9-48C527.9,404.9,525.7,398.9,523.4,392.9z M741.2,952c1.1-6.7,2.1-14.3,3.6-21.7
		c3.7-18.6,7.8-37.1,11.5-55.7c2.9-14.9,4.4-30,3.8-45.3c-0.2-4.2-0.7-8.5-0.6-12.7c0-6.6,0.4-13.2,0.7-19.9
		c1-28.4,1.9-56.8,3.1-85.2c1.3-29.1,4.1-58.2,9-87c4.4-26.4,10.7-52.2,19.9-77.4c0.2-0.6,0.4-1.3,0.6-1.9c-0.2-0.1-0.4-0.2-0.7-0.3
		c-2.9,6.7-6,13.4-8.7,20.2c-6.6,16.8-10.9,34.4-15.7,51.8c-2.2,8.2-4.8,16.2-3.8,25.2c2.1,20.1-0.2,40.1-2.6,60.1
		c-2.7,22.8-5.7,45.6-8,68.4c-1.4,13.8-0.8,27.6,0.8,41.4c1,8.6,2.1,17.2,2.3,25.7c0.3,17.5-3.2,34.6-6.7,51.7
		c-3.5,17-7.4,33.9-8.4,51.2C741,944.9,741.2,948.8,741.2,952z M663.2,541.9c0.1,1,0.1,1.6,0.2,2.2c2.6,16.4,5.2,32.7,7.7,49.1
		c2.8,18.7,5,37.5,5.2,56.4c0.1,9.3,0.5,18.6,1.1,27.9c1.1,16.4,2.4,32.8,3.8,49.2c1.3,15,2.8,29.9,4.2,44.9
		c1,10.7,2.3,21.5,3.1,32.2c0.6,7.6,0.7,15.3,0.8,23c0.4,28.7,0.8,57.4,1.1,86.2c0,0.4,0,0.9-0.1,1.3c-1.6,10.1-1.4,20.2-0.6,30.3
		c0.2,2,0.6,4,0.9,5.9c0.2,0,0.5,0,0.7,0c0.2-0.9,0.5-1.8,0.5-2.7c0.4-5,0.6-9.9,1-14.9c1.2-15.9,2.8-31.7,3.6-47.6
		c1.2-23.8,0.1-47.6-4-71.2c-0.8-4.5-2-9.1-1.9-13.6c0.3-10.8,0.1-21.6-1.2-32.3c-2.1-16.9-4.7-33.7-6.7-50.6
		c-1.5-12.4-1.8-24.8-0.3-37.2c0.8-7,2.9-14,0.6-21.2c-0.6-1.9-0.7-3.9-0.9-5.9c-2.1-17.9-4.2-35.7-6.2-53.6
		C673.7,580,668.7,561.1,663.2,541.9z M867.8,467.1c0,0.2,0.1,0.3,0.1,0.5c2.2-0.2,4.4-0.4,6.5-0.7c16.7-2.2,32.3-7.7,47.3-15.2
		c17.3-8.7,33.1-19.6,48.7-30.9c2.4-1.7,4.1-3.6,5.3-6.5c4.7-11.9,13.6-20.1,24.2-26.6c7.2-4.4,14.8-8.2,22.1-12.6
		c4.9-3,9.5-6.5,14.3-9.8c1.2-0.9,1.5-1.8,0.8-3.4c-1-2.4-2-4.9-2.3-7.4c-1.1-9.1-1.8-18.3-2.7-27.5c-0.1-1.3-0.3-2.6-0.4-4
		c-0.2,0-0.4,0-0.6,0c-0.3,0.8-0.6,1.6-0.8,2.4c-1,4.1-2,8.2-3.1,12.3c-0.6,2.3-0.5,4.4,0.4,6.7c1.1,2.8,1.8,5.8,2.2,8.8
		c1.1,9-3.2,15.3-11,19.1c-5.2,2.5-10.7,4.3-16.1,6.4c-8,3.1-16.2,5.6-23.9,9.2c-9.7,4.5-16.3,12.1-17.8,23c-0.6,4-2.3,7.1-4.7,10
		c-1.8,2.1-3.6,4.2-5.5,6.1c-9.7,9.6-21.5,15.9-34,20.8c-13.4,5.2-26.8,10.1-40.2,15.2C873.6,464.3,870.7,465.8,867.8,467.1z
		 M985.8,414.7c-0.1,0-0.2-0.1-0.4-0.1c-0.1,0.3-0.3,0.6-0.4,0.9c-4.7,14.1-9.5,28.1-14.2,42.2c-3.8,11.4-7.3,22.8-11.1,34.1
		c-1.1,3.3-2.8,6.4-4.4,9.5c-1,1.8-2.1,3.9-4.6,3.8c-2.6-0.1-3.2-2.6-4.2-4.4c-0.4-0.8-0.8-1.7-1.1-2.5c-1,3.2-1.1,6.5-2.1,9.5
		c-3.1,9.8-6.5,19.4-9.7,29.1c-2.7,8-5.4,16-7.9,24.1c-0.5,1.6-0.3,4.1,0.7,5.1c1.6,1.5,3.6-0.1,5.2-1.1c2.2-1.3,4.3-2.9,6.5-4.4
		c1.3,5.2,1.6,10.4,3.9,15.2c0.4-0.7,0.6-1.4,0.7-2.2c0.7-6.3,1.4-12.7,2.2-19c0.9-6.4,1.9-12.9,5.1-18.6
		c9.4-16.6,16.1-34.2,21.3-52.6c5.1-18.2,8.6-36.7,12-55.3C984.3,423.6,985.1,419.2,985.8,414.7z M613.8,256.9
		c0.3,0.1,0.5,0.2,0.8,0.2c0.5-1,1.1-2,1.6-3.1c3-6.4,6.1-12.9,9.1-19.3c0.7-1.5,1.3-3,1.9-4.5c5.3-13.2,5.7-26.9,5.1-40.8
		c-0.6-11.8-1.4-23.6-1.5-35.4c0-12.6,2.9-24.6,9.2-35.7c0.3-0.5,0.6-1.1,0.7-1.6c1-6.2,3.8-11.7,7.7-16.4
		c6.2-7.6,12.8-14.9,19.2-22.3c0.6-0.7,1.3-1.4,2-2.2c-0.9,0.1-1.5,0.4-2.1,0.8c-3.8,2.7-7.5,5.6-11.5,8.1
		c-8.6,5.4-14.1,13.3-18.2,22.3c-4.7,10.5-7.2,21.7-10.2,32.7c-1.8,6.7-3.9,13.4-6.2,20c-0.8,2.4-2.5,4.4-3.7,6.6
		c-3.9-12.6-9.8-23.7-17.1-34.1c-6.5-9.2-13.3-18.1-19.9-27.2c-0.7-1-1.4-1.9-2.1-2.9c0.1,1,0.4,1.8,0.9,2.5
		c7.4,11.9,14.8,23.7,22.2,35.5c5.8,9.1,11.5,18.2,15.6,28.3c6.1,14.9,7.6,30,1.9,45.4c-0.2,0.5-0.3,1.2-0.3,1.7
		c0.8,9.2-1,18.2-2.5,27.3C615.4,247.5,614.6,252.2,613.8,256.9z M880.7,824.5c0.2-0.1,0.5-0.1,0.7-0.2c0.1-0.4,0.2-0.8,0.3-1.3
		c2.2-11.2,4.2-22.5,6.8-33.7c5.2-22.4,13.4-43.6,26.3-62.8c0.5-0.8,0.9-1.7,1.2-2.6c5.6-14.8,9.8-30.1,13-45.6
		c5.1-24.9,7.6-50.1,9.4-75.4c0.2-2.9,0.4-5.9,0.5-8.8c-1.1,4.3-1.7,8.6-2.3,12.9c-1.6,11.5-3.4,23-7.6,33.9
		c-3.2,8.5-7.8,15.9-15.2,21.6c-3.3,2.6-5.4,6.6-8.1,10c3.2-1.5,5.9-3.5,8.9-4.8c5.7-2.4,10.2,1.1,9.3,7.2c-0.9,6.1-2,12.2-3.7,18.1
		c-4.3,15.4-11.4,29.7-19.1,43.6c-7.8,14-15.8,27.8-23.7,41.7c-0.5,0.9-1,2-1.5,2.9c2.4-2.6,4.4-5.4,6.6-7.9c0.9-1,2.3-1.6,3.5-2.4
		c0.1,1.4,0.5,2.8,0.3,4.1c-1.2,6.3-2.6,12.5-4,18.8c-1.7,8.2-3.6,16.4-2.9,24.9C879.6,820.7,880.2,822.6,880.7,824.5z M921.1,80.5
		c0.3-1.1,0.5-1.7,0.7-2.3c3.8-12.7,13.7-18.9,26.8-16.6c2,0.4,4.1,0.9,6.1,1c16.3,1,32.7,1.9,48.8,4.8c19.2,3.5,37.4,9.8,53.5,21.1
		c0.2,0.2,0.6,0.2,0.9,0.3c-1.2-1.4-2.6-2.6-4-3.7c-11.6-9.5-23.7-18.2-37.6-24.2c-14.5-6.2-29.3-8.4-44.9-4.4
		c-3.3,0.9-6.7,1.1-10.1,1.3c-14.9,1-29.9,1.3-44.7,3.1c-19.3,2.3-38.5,5.8-57.8,8.8c-3.1,0.5-6.1,1.1-9.1,1.7
		c0.8,0.6,1.5,0.8,2.2,0.9c7.5,1.5,15.1,0.8,22.7,0.2c9.5-0.8,19-1.8,28.5-1.9C910.5,70.6,917.2,72.9,921.1,80.5z M613.7,577.4
		c-0.3,0-0.6,0-0.9,0c0.2,2.8,0.4,5.6,0.5,8.4c0.2,16.3,0.3,32.6,0.5,48.9c0.1,8.9-0.1,17.9,0.8,26.8c1.6,16.5,3.6,33,6.1,49.3
		c3.4,21.9,7.4,43.7,11.1,65.5c3.2,18.9,5.6,37.9,6.2,57.2c0.2,7.2,0.6,14.4,1.7,21.5c1.2,7.7,3.4,15.4,5.3,23
		c0.3,1.3,1.2,2.4,1.7,3.6c0.2-0.1,0.4-0.1,0.6-0.2c0.2-0.6,0.5-1.2,0.5-1.8c-0.4-6.9,0.3-14-1.4-20.6c-3.4-13.5-6.5-27.1-7.6-40.9
		c-1.6-19.2-2.7-38.4-4.2-57.6c-0.9-12.6-2.5-25.1-5.1-37.5c-2.4-11.3-5.1-22.6-6.8-34.1c-3.2-21.2-3.7-42.7-5.1-64
		C616.6,608.9,615,593.2,613.7,577.4z M859.2,1001.9c-1.4,3-3.1,5.9-6.5,6.7c-2.5,0.6-5.4,0.9-7.9,0.4c-4.6-0.9-9-2.6-13.5-3.8
		c-2.8-0.7-5.6-1.4-8.5-1.6c-2.4-0.2-4,1.2-4.4,3.6c-0.3,1.8-0.2,3.6-0.3,5.4c3.5-0.6,6.6-1.3,9.8-1.7c0.8-0.1,1.6,0.5,2.4,0.8
		c-0.4,0.8-0.6,1.9-1.2,2.4c-3.6,3-7.8,4.6-12.4,4.8c-6.8,0.4-11.3-2.8-13.4-9.3c-0.3-0.8-0.5-1.7-0.9-3c-5,0.5-10,0.8-15,1.6
		c-2.2,0.3-2.4,1.6-0.7,3c1.9,1.5,4.1,2.8,6,4.2c1.8,1.3,3.6,2.7,5.8,4.3c-11.4,3.8-21.9,1.2-33-1.3c4,4.3,8.5,6.8,13.3,8.5
		c19,6.5,38,5.6,56.8-1.1c7.2-2.5,13.6-6.3,18.5-12.3C857,1010,858.8,1006.3,859.2,1001.9z M901.9,284.6c-0.2-0.1-0.3-0.2-0.5-0.2
		c-12.7,21.7-26.4,42.8-41.4,63.3c-1.1-2.3-2-4.3-2.9-6.3c-0.5,2.2-0.5,4.4-0.7,6.5c-0.9,11.7-1.9,23.4-2.5,35.2
		c-0.6,11.3,0.5,22.4,4.2,33.2c0.3,0.8,0.4,1.7,0.4,2.6c0.6,9.7,1.2,19.5,1.9,29.2c0.2,2.4,0.6,4.8,0.9,7.3c0.6-0.6,0.7-1.2,0.7-1.7
		c0.4-5.7,0.9-11.4,1.2-17.1c0.6-10.4,0.2-20.8-2.5-31c-0.3-1.2-0.3-2.9,0.3-4c4.6-8.9,9.2-17.8,14.1-26.6
		c8.1-14.7,15-29.7,14.7-46.4c-0.1,0.4-0.5,1.4-0.8,2.5c-3.7,11.1-7.2,22.2-11.3,33.1c-2.1,5.6-5.2,10.8-8.2,16
		c-0.9,1.6-2.7,3-4.4,3.9c-0.8,0.5-2.4,0.1-3.5-0.3c-0.3-0.1-0.3-1.7-0.1-2.6c1.6-6.9,3.4-13.7,1-20.8c-0.6-1.7-0.8-3.5-1.2-5.2
		c-0.4-1.6-0.1-2.9,0.9-4.3c12.1-16,23-32.8,32.1-50.6C896.9,295,899.4,289.8,901.9,284.6z M860.4,190.2c-5.7-11.2-11.9-22-20.1-32
		c4,0,7.6,0.2,11.1-0.1c2.1-0.2,4.2-0.9,6.1-1.9c2.4-1.3,2.4-3.7,0.1-5.1c-1.6-0.9-3.4-1.5-5.2-1.8c-4.9-0.8-9.7,0.1-14.3,1.6
		c-5.8,1.9-11.8,2.3-17.6,0.7c-7.2-2-14.3-4.5-21.4-7c-7.1-2.5-14.3-4.9-22-3.7c-3.5,0.5-6.8,1.9-10.3,2.7
		c-12.5,2.9-24.9,5.6-37.4,8.4c-6.7,1.5-13.4,3-20.1,4.6c4.8-0.2,9.5-0.9,14.1-1.7c13.8-2.3,27.5-5,41.3-7c20.1-2.8,39,0.9,56.3,12
		C835.2,168.7,848.5,178.5,860.4,190.2z M604.4,178.5c-0.1-0.2-0.2-0.3-0.3-0.5c-3,1.5-6,2.8-8.9,4.4c-13,7.4-22,18.4-29,31.4
		c-7.6,14.1-12.2,29.3-16.5,44.6c-2.2,7.9-4,15.9-6.8,23.5c-2.4,6.4-6,12.4-9.1,18.6c-0.3,0.7-0.7,1.3-1,2c3.2-3.7,6.1-7.6,8.9-11.5
		c1.3-1.9,2-4.1,3.2-6.1c6.1-10,12.2-19.9,18.3-29.8c7.1-11.6,11.6-23.9,9.3-37.9c-0.1-0.7,0.1-1.5,0.5-2.1
		c5.4-7.7,10.8-15.5,16.5-23C593.6,186.6,598.7,182.1,604.4,178.5z M657.3,481.2c0.1,0.2,0.2,0.4,0.3,0.6c4.9-2.1,9.9-3.8,14.6-6.3
		c6.4-3.4,12.3-7.6,18.6-11c11.2-6.1,23.1-9.2,35.9-6.9c6.8,1.2,13.5,1,20.2,0.7c3.2-0.2,6.4-0.4,9.6-0.2c6.9,0.3,12.7,2.5,17.2,8.3
		c3.7,4.9,8.2,9.2,12.4,13.7c0.3,0.3,0.7,0.4,1,0.6c-0.4-1.4-0.9-2.6-1.7-3.6c-3.9-5.4-8.2-10.6-11.9-16.2
		c-2.9-4.4-6.9-6.5-11.8-7.7c-0.3-0.1-0.6-0.1-0.9-0.2c-9.4-2.3-18.9-1.5-28.4-1.1c-7.9,0.3-15.9,0.5-23.8,0.2
		c-5.2-0.3-10.3-0.9-15.3,0.6c-3.7,1.2-7.5,2.6-10.8,4.6C672.3,463.1,664.7,472,657.3,481.2z M762.2,1010.8
		c-0.1,0.1-0.3,0.1-0.3,0.2c-0.4,0.5-0.7,0.9-1.1,1.4c-4.5,6.2-10.3,10.7-17.7,12.4c-5.2,1.2-10.7,1.5-16.1,1.8
		c-3.2,0.2-6.4-0.9-9.5-0.5c-5.9,0.8-11.6,0.6-17.3-0.9c-11.1-3-22.1-6.4-33.1-9.6c-3.8-1.1-7.6-2.1-11.4-3
		c-0.6-0.1-1.4,0.4-2.1,0.7c0.5,0.6,0.9,1.5,1.6,1.8c16.7,7.3,33.6,14.1,51.5,17.9c10.2,2.2,20.5,3.4,31,1.6
		C750.8,1032.1,760.2,1023.1,762.2,1010.8z M681.6,520.6c0,0.2,0,0.4,0,0.5c2.5,0.5,5.1,0.9,7.6,1.5c14.4,3.1,29,5.8,43.3,9.5
		c14.7,3.7,28.2,10.3,39.7,20.5c0.2,0.2,0.5,0.3,1,0.5c-0.2-0.7-0.2-1.1-0.4-1.5c-2.8-7.1-7-13.1-12.9-17.9
		c-9.7-7.9-21.2-11.1-33.3-12.8c-12.2-1.7-24.5-1.4-36.8-0.8C687.2,520.1,684.4,520.4,681.6,520.6z M792.3,277.1
		c0-0.1,0.1-0.3,0.1-0.4c-0.6-0.4-1.2-0.8-1.9-1.1c-5.7-2.6-11.4-5.5-17.2-7.9c-17.7-7-35.9-11.1-55.1-9.1
		c-16.9,1.8-30.9,9.4-43,21.6c0.7-0.4,1.1-0.6,1.5-0.8c13.9-9,29.3-12.8,45.6-13.3c14.4-0.4,28.5,1.7,42.5,4.8
		C774,272.9,783.2,275,792.3,277.1z M836.8,61c0.1-0.1,0.2-0.3,0.3-0.4c-3-1.9-5.9-4-9-5.6c-9.4-4.7-19.5-4.8-29.4-2.4
		c-10,2.3-19.7,5.5-29.5,8.4c-10,3-20,6.4-30.5,7.1c-4,0.3-8,0-12,0.5c-13.2,1.4-26.1,0.7-38.6-4.4c-0.3-0.1-0.6-0.1-1-0.2
		c2,3.9,4.7,6.6,8.3,8.4c5.9,2.9,12.2,3.6,18.5,2.8c9-1.2,17.9-2.9,26.8-4.4c8.9-1.5,17.7-3,26.6-4.2c2.5-0.3,4.8-0.5,7-2.1
		c1.9-1.4,4.3-2.4,6.6-3.3c14.5-5.1,29.3-5,44.3-2.9C828.9,58.9,832.9,60.1,836.8,61z M795.4,326.7c-0.6-0.3-1.1-0.6-1.5-0.9
		c-4.7-4.2-9.9-7.8-15.7-10.6c-16.1-7.7-33-9-50.3-6.5c-20.9,3-40.1,10.8-57.7,22.3c-0.6,0.4-1.1,0.8-1.4,1c6.6-2.2,13.3-4.6,20-6.7
		c15.8-5,31.7-9,48.3-10.3c13.1-1.1,26.1-0.6,38.6,3.5C782.4,320.8,788.7,323.9,795.4,326.7z M843.9,890.6c0.1-1.1,0.2-2.3,0.3-3.4
		c1-12.4,1.8-24.8,3.2-37.1c0.9-7.8,2.7-15.6,8.3-21.7c0.3-0.4,0.4-1,0.5-1.5c5.8-24.3,12-48.5,17.4-72.9
		c7.2-33,13.7-66.1,20.5-99.1c0.9-4.4,1.6-8.9,2.4-13.3c-0.6,0.9-0.8,1.9-1,2.9c-5.9,26.7-11.7,53.4-17.6,80.1
		c-2.7,12.4-6.2,24.7-8,37.3c-2,14-5.8,27.3-10.8,40.4c-4.7,12.3-9.5,24.7-13.7,37.2C839.6,856.2,840.6,873.4,843.9,890.6z
		 M825.3,497.7c2.2,7.6,0.7,15-1.1,22.3c-1.1,4.5-2.5,9-3.4,13.6c-0.6,3.2-0.8,6.6-0.7,9.9c0.1,2.8,2,4.7,4.7,5.3
		c2.1,0.4,4.3,0.6,6.4,0.5c8.7-0.3,15.5-3.9,19.4-12c0.6-1.1,1.2-2.3,1.6-3.4c6.1-16.4,6.8-33.2,3.2-50.3c-0.5-2.3-1.7-4.6-2.8-6.7
		c-0.8-1.5-2.3-1.9-3.5-1c1.4,3.9,3.2,7.4,3.9,11.1c3.2,15.4,1.2,30.4-5,44.7c-1.6,3.6-4.2,6.8-6.8,9.8c-2.1,2.5-5.3,3.3-8.6,2.3
		c-3.8-1.2-6.3-4-8.6-7.2c4.4-1.6,6-5.1,6.6-9.1c1.4-9.8-0.3-19.1-4.3-28C826.1,498.9,825.6,498.3,825.3,497.7z M878.5,831.9
		c-0.2,0-0.5-0.1-0.7-0.1c-0.4,1-0.8,2-1.1,3c-2.1,7.2-4,14.5-6.3,21.6c-2.6,8-4.8,16.2-4.8,24.6c-0.1,9.8,0.3,19.6,0.7,29.4
		c0.5,11.8,0.4,23.5-2.6,35c-2.5,9.3-5.5,18.5-8.2,27.8c-0.2,0.8-0.4,1.5-0.7,2.3c0.7-0.5,1.1-1.2,1.4-1.8
		c8.6-16.9,13.2-35.1,14.6-53.9c1.1-15.1,1.2-30.3,1.8-45.5c0.1-1.6,0.2-3.1,0.5-4.6c1.6-10.3,3.3-20.5,4.9-30.8
		C878.3,836.5,878.3,834.2,878.5,831.9z M690.2,376.3c0.1,0.4,0.1,0.7,0.2,1.1c8,0,15.9,0,23.9,0c21.7-0.1,42.3,4.9,61.7,14.5
		c5,2.5,9.9,5.4,14.9,8.2c-0.6-4.1-2.7-7.2-5.6-9.9c-4.8-4.5-10.5-7.5-16.6-9.7c-20.9-7.6-42.5-9.6-64.6-7
		C699.5,374.1,694.9,375.3,690.2,376.3z M906.4,398.8c18.7-7.7,34.8-18.8,47.1-35.1c12.2-16.2,18.7-34.7,21.8-54.5
		C961.9,346.3,938,375.5,906.4,398.8z M765,786.7c0.4,0,0.9,0.1,1.3,0.1c4.5-25,10.3-49.7,12.1-75.2c1.7-25.4-0.4-50.7-0.9-76.1
		C774.2,686,771.8,736.6,765,786.7z M798.7,670c0.2,0.1,0.3,0.2,0.5,0.3c0.2-0.3,0.4-0.5,0.6-0.8c11.2-21.5,22.7-43,33.7-64.6
		c10.8-21.4,19.7-43.6,25.2-67c0.3-1.2,0.5-2.4,0.7-3.7C837.2,578.7,821.1,625.7,798.7,670z M874.4,306.4c-1.4-0.1-2.6-0.2-3.8-0.4
		c-5.9-0.9-11.7-1.7-17.6-2.7c-1-0.2-1.9-0.8-2.8-1.3c0-0.2,0-0.5,0-0.7c0.8-0.4,1.6-1,2.4-1.2c2.4-0.6,4.9-1.2,7.4-1.6
		c5.5-1.1,9.8-4.1,13.3-8.3c2.8-3.3,1.5-6.8-2.6-8.2c-1-0.3-2-0.5-3.1-0.6c-7.2-0.2-12.7,2.9-16.2,9.1c-1.4,2.5-2.8,4.6-5.1,6.5
		c-3.5,2.8-3.3,6.3-0.1,9.4c0.5,0.5,1.1,1,1.8,1.4c5.7,3.6,12,4.9,18.6,3.9C869.9,311.2,872.8,309.9,874.4,306.4z M633.3,299.3
		c-0.1,0.2-0.1,0.5-0.2,0.7c3,0.6,6,1.6,9,1.9c4.4,0.4,7.2-1.8,8.2-6.2c0.5-1.9,0.6-4,0.5-6c-0.8-10.1-4.6-19-10.8-26.9
		c-1.6-2.1-3.8-3.8-5.9-5.3c-1.9-1.4-4.3-1.7-6.5-0.4c-3.2,1.9-4.5,5.1-5.4,8.5c0.8-0.7,1.4-1.6,2-2.3c2.6-3,5.8-3.8,9.2-1.7
		c6.5,4,10.1,10.1,11.8,17.4c0.1,0.6-0.1,1.8-0.5,2c-0.6,0.3-1.6,0.1-2.2-0.3c-1.3-0.8-2.6-1.8-3.7-2.9c-2.1-2.1-4.1-4.3-6.2-6.6
		c-1,0.8-2,1.6-2.8,2.5c-3.5,3.6-3.4,7,0.5,10.1c2,1.6,4.4,2.8,6.6,4.1c2.5,1.4,5.2,2.6,7.6,4.2c2.2,1.4,2,2.7-0.3,4
		c-0.8,0.4-1.6,0.8-2.4,1.1C639,297.8,636.1,298.5,633.3,299.3z M796.3,529.5c0.2,0.1,0.4,0.3,0.5,0.4c1.4-1.5,2.8-2.8,4.1-4.4
		c7.5-9.4,14.9-18.9,22.3-28.4c7.6-9.7,15.3-19.3,25.2-26.7c4.2-3.2,8.9-5.8,13.1-8.5c-0.2,0-0.8,0.1-1.4,0.1
		c-9.9,1.4-18,6.3-25,13.2c-6.7,6.6-12.1,14.2-17.4,22c-1,1.5-2.1,1.8-3.4,0.8c-1.6-1.3-3.1-2.7-4.7-4.1
		C807.2,506.4,804.4,518.9,796.3,529.5z M750.4,1007.3c-0.7-0.3-1.3-0.6-2-0.9c-15.7-6.3-31.9-10.4-48.8-11.5
		c-11-0.7-21.9-0.1-32.1,4.6c-2.7,1.3-5.2,3-7.8,4.5c0.1,0.2,0.2,0.5,0.3,0.7C690.3,998.8,720.3,1002.1,750.4,1007.3z M642.7,1001.2
		c0.2-3.1,0.2-6.6,0.9-9.9c0.6-3.3,1.7-6.6,2.9-9.8c1.8-4.6,3.8-9.2,5.8-13.8c4.4-10.3,5.7-20.7,1.1-31.4c-0.2-0.6-0.2-1.3-0.2-2
		c-0.1-6-0.2-12-0.2-18.5c-1,8.5-1.6,16.4-2.9,24.3c-2.2,12.7-5.2,25.2-7.4,37.8C641.2,985.9,641,993.8,642.7,1001.2z M901.7,214.5
		c10.3,20.4,8.8,42.3,8.1,64c5.6-21.6,5.6-43.8,6.6-65.8C912.1,218.1,912.1,218.1,901.7,214.5z M836.2,880.1
		c-8.9-6.2-17.7-12.1-26.2-18.5c-8.5-6.5-16.6-13.5-25.3-20.6C789.8,859,822.2,881.5,836.2,880.1z M694.3,750.4
		c4.8-1,9.3-2.2,13.8-2.9c10.1-1.6,20.2-1.4,29.8,2.7c1.2,0.5,2.2,1.5,3,2.4c1.9,2,3.7,4.1,5.6,6c0.4,0.4,1.4,0.6,1.8,0.3
		c0.4-0.3,0.7-1.1,0.6-1.7c-0.2-6.1-7.1-14.5-13.3-15.2c-7.5-0.7-15-1.2-22.5-0.9C705.8,741.4,699.4,744.6,694.3,750.4z M754.1,906
		c0.9,31.3,9,61.3,14.8,91.8C769.1,966.4,761,936.3,754.1,906z M695.7,627.5c4.1,3.8,8.5,5.4,13.7,5.1c5.7-0.3,10.9-2.4,15.7-5.4
		c7.4-4.6,14.7-9.5,22.1-14.3c0.7-0.4,1.3-1,1.9-1.6c-1.4-0.1-2.5,0.2-3.6,0.6C729.2,618,713.6,625.6,695.7,627.5z M841.7,915.4
		c-2.8,12.7-4.9,25.5-4.1,38.6c0.9,15,6.1,28.3,15.9,39.8c0.5,0.6,1,1.1,1.5,1.6c-6.6-12.3-9.7-25.5-11.7-39.1
		C841.3,942.8,840.8,929.1,841.7,915.4z M834.8,913.9c-0.1-0.2-0.2-0.5-0.3-0.7c-1.3,0.4-2.6,0.9-3.9,1.2
		c-5.3,1.5-10.5,3.3-15.8,4.3c-2.7,0.5-5.7-0.6-8.5-0.9c-4.9-0.4-9.8-0.8-14.7-1.2c-4.1-0.3-8.3-0.6-12.5-0.9
		c3.3,1.8,6.7,3.3,10.2,4.5c9.9,3.5,19.9,5.2,30.4,3.9C826.6,923.3,831.1,919.3,834.8,913.9z M700,680.4c0-0.1-0.1-0.2-0.1-0.2
		c1.4,0.2,2.9,0.5,4.3,0.5c14.3,0,28.5,0,42.8,0c0.6,0,1.4-0.2,1.8-0.6c1.3-1.7,3.2-3.4,2.4-5.7c-0.8-2.3-3.3-2.2-5.2-2
		c-4.2,0.3-8.4,0.7-12.6,1.5C722.2,675.9,711.1,678.2,700,680.4z M621.6,470.7c-0.1,0-0.1-0.1-0.2-0.1c-0.3,0.7-0.7,1.5-1,2.2
		c-2.8,8.3-5.9,16.5-8.2,24.9c-3.3,11.6-5.9,23.4-5.5,35.6c0.1,3.1,0.8,6.3,1.8,9.3c1,3,3.3,4.8,6.6,4.7c4.5-0.1,8.1-2.4,11.7-4.8
		c-2.3-4.3-1.4-8.5-0.4-13.4c-1,1.4-1.5,2.3-2.2,3.1c-1.6,1.8-3.2,3.8-5.1,5.3c-3.3,2.6-6.1,1.7-7.9-2.1c-0.4-0.7-0.7-1.5-0.9-2.3
		c-1.4-5.1-1.9-10.2-1.4-15.5c1-9.3,3.1-18.3,5.9-27.2C617,483.9,619.3,477.3,621.6,470.7z M877.7,94.8c8.2,6.1,14.5,13.9,20.5,21.9
		c5.5,7.2,10.7,14.6,16.1,21.9c0.9,1.2,1.9,2.3,2.9,3.5c0.2-0.2,0.5-0.3,0.7-0.5c-3.3-10.1-8.1-19.4-14.8-27.8
		C896.3,105.3,888,98.7,877.7,94.8z M708.9,707.1c8.5,1.9,16.9,4,25.4,5.6c4.5,0.8,9.3,0.8,13.9,0.9c2,0,3.8-1.1,4.9-3.3
		C738.7,703.8,723.6,706.8,708.9,707.1z M650,1002.5c0.5-0.9,0.9-1.5,1.2-2.1c3.4-5.7,7.1-11.2,12.5-15.3c4-3,8.3-4.4,13.4-2.6
		c0.8,0.3,2.1-0.7,3.1-1.1c-0.7-0.5-1.3-1.4-2.1-1.5c-8.9-1.4-17.4-0.2-24.7,5.3C648.2,989.2,646.9,996.1,650,1002.5z M862,114.5
		c10.8,5.8,17.8,15.2,23.2,25.8c4.3,8.5,7.8,17.5,11.6,26.2c0.7,1.6,1.3,3.3,1.9,4.9c-1-5.4-2.3-10.6-3.8-15.8
		c-2.6-9.2-5.7-18.2-11.4-26C878.1,122.2,870.9,117.1,862,114.5z M652.1,885.2c0.1,0.1,0.2,0.2,0.3,0.4c3.5-0.6,7-1.1,10.5-1.7
		c6.3-1,12.6-2,18.4-5c1.3-0.7,3.7-1.1,3.1-3.1c-0.3-0.8-2.8-1.4-4.2-1.3c-8.5,0.4-16.5,2.9-23.8,7.3
		C654.7,882.7,653.5,884,652.1,885.2z M781.5,945.3c-0.1,0.2-0.1,0.5-0.2,0.7c13.7,10.3,40.2,8.3,47.2-4c-1.8,0.6-3.3,1-4.7,1.5
		c-4.8,1.8-9.5,3.7-14.4,5.3c-4.4,1.4-9,1.9-13.6,0.5C791,947.9,786.2,946.6,781.5,945.3z M812.6,457.2c0.3,0,0.5,0.1,0.8,0.1
		c1-5.4,2.2-10.8,3-16.3c1.1-7.9,1.7-15.8-1-23.6c-0.2-0.7-0.1-1.5-0.1-2.2c0-5.5,0-10.9,0-16.4c-0.3,0-0.5,0-0.8,0
		C813.8,418.2,813.2,437.7,812.6,457.2z M848.9,283.8c0.5-0.7,1-1.5,1.5-2.2c3.6-5.2,7.7-9.8,13.4-12.8c6.9-3.6,13.4-2.9,19.5,1.9
		c0.5,0.4,1,0.7,1.4,1.1c0.1-0.2,0.3-0.4,0.4-0.5c-2.7-2.3-5.2-4.9-8.1-6.9c-5.6-3.8-11.1-3.3-16.2,0.9
		C855.1,270.2,851.8,276.9,848.9,283.8z M658.7,902.5c0,0.1,0,0.3,0,0.4c4.9,1.1,9.7,2.3,14.7,3.2c4.6,0.8,8.1-1.2,10.8-4.7
		c0.5-0.6,0.6-1.6,0.9-2.4c-0.8-0.3-1.6-0.9-2.4-0.8c-3.2,0.3-6.5,0.7-9.7,1.3C668.2,900.4,663.4,901.5,658.7,902.5z M727.4,996.6
		c0.4-1.3,0.6-2.3,0.9-3.3c1.7-5.4,5-8,10.6-7.5c3.4,0.3,6.8,1.5,10.1,2.5c1.7,0.5,3.4,1.3,5.1,2c0.1-0.2,0.2-0.3,0.3-0.5
		c-2-2.1-4.2-4.2-6.1-6.4c-2.5-3.1-5.7-3.4-9.2-2.5C732,982.6,726.5,989.8,727.4,996.6z M809.3,491.7c0.3,0,0.6,0.1,0.9,0.1
		c0.9-9.6,1.8-19.2,2.7-28.8c-0.3,0-0.5,0-0.8-0.1C810.3,472.4,807.4,481.8,809.3,491.7z M922.6,98.1c0.8-5.6,1-11.2-1.4-16.5
		C920.1,87.2,920.1,92.8,922.6,98.1z M642.3,497.8c-4.4,4.3-9.9,8.1-9,15.2C636.2,508,639.3,502.9,642.3,497.8z M944.8,496.4
		c0.3,0.1,0.6,0.1,1,0.2c0.9-5.9,1.9-11.8,2.8-17.7c-0.4-0.1-0.7-0.1-1.1-0.2C946.6,484.7,945.7,490.6,944.8,496.4z M804.9,282.8
		c-0.1,0.2-0.2,0.3-0.3,0.5c6.3,4.6,12.5,9.2,18.8,13.8c0.2-0.2,0.3-0.5,0.5-0.7C817.6,291.8,811.2,287.3,804.9,282.8z M549.7,64.8
		c0.2-0.2,0.4-0.3,0.6-0.5c-1.9-2.6-3.8-5.2-5.7-7.8c-0.3,0.2-0.5,0.4-0.8,0.6C545.7,59.7,547.7,62.2,549.7,64.8z"/>
	<path d="M619.2,445.5c-0.6-7.3,0.6-14.1,2.8-20.8c0.8-2.4,0.5-5.2,0.9-7.7c1.6-10.5,5.9-20.2,9.8-30c4-10.1,8-20.2,11.4-30.4
		c1.4-4.3,1.7-9.1,1.7-13.6c0.1-7.8-3.5-14-9.8-18.6c-2.2-1.5-4.5-3.1-7-3.9c-3.4-1.1-4.9-3.3-6-6.4c-4-10.9-7.5-21.9-9.5-33.4
		c-0.1-0.7-0.1-1.4-0.2-2.1c0.2-0.1,0.3-0.2,0.5-0.3c0.4,0.6,0.9,1.2,1.2,1.8c1.7,4.1,3.6,8.2,5,12.4c0.6,1.8,0.4,3.8,0.7,5.7
		c1.7,11.6,13.9,24.8,25.4,27.5c3.2,0.8,6.3,0.8,8.9-2c0.2,0.1,0.4,0.2,0.6,0.3c-0.8,5.2-1.4,10.5-2.5,15.7
		c-3.1,15.2-9.3,29.4-15.1,43.8c-4.9,12.2-9.8,24.4-12.5,37.4c-2.1,9.9-2.9,19.9-1.5,29.9c0.4,2.7,1.5,5.5,2.5,8
		c3.3,7.8,7.7,15,13.7,21c1.5,1.6,3.4,2.9,5.4,3.9c2.3,1.2,4.3,0.2,4.6-2.4c0.3-3.7,0.5-7.5-0.2-11.1c-4.2-21.4-2-42.5,2.1-63.6
		c0.3-1.7,1.2-3.4,1.9-5c0.3,0.1,0.5,0.1,0.8,0.2c-0.2,3.4-0.4,6.7-0.6,10.1c-1.4,22.7-2.5,45.5-1.1,68.3c0.8,11.9,2.3,23.7,5,35.3
		c0.1,0.3,0.1,0.6,0,0.9c-6.3-14-16.2-25.6-24.8-38.1c-7-10.2-7.7-11.8-13.8-29.6c-1.4,0.7-2.9,1.3-4.4,2c-0.9,0.4-1.9,0.8-2.4,1.5
		c-3.7,5.1-8.2,7-14.4,5.4c-7.1-1.8-13-5.9-18.6-10.4c-9.9-8-19.6-16.2-29.4-24.4c-0.4-0.3-0.8-0.7-1-1.2
		c-5.5-12.7-14.9-22.3-24.8-31.5c-6.9-6.4-13.8-13-20.1-19.9c-3.3-3.6-6.4-7.1-10.7-9.6c-9.1-5.5-14.5-14.2-18.1-23.9
		c-3.2-8.6-5.9-17.3-9-25.9c-3-8.3-6.8-16.1-13.4-22.1c-2.9-2.7-6.3-4.9-9.5-7.2c7.8,2.1,16,3.4,22.4,9.4c1.3,1.3,2.5,3,3.1,4.7
		c6.6,18.4,13.9,36.4,24.6,52.8c6.4,9.7,13.7,18.6,23.8,24.7c1.8,1.1,3.8,2.2,5.8,2.9c2.4,0.8,4.1,2.2,5.8,4
		c6.5,6.9,11,15.1,16,23.1c5.4,8.8,10.7,17.7,16.8,26c7.9,10.6,18.5,17.5,31.8,19.8c2.1,0.4,3.4,0.1,4.8-1.9
		c4.2-6.2,10.8-7.9,16.5-4.5C616.5,443.1,617.7,444.3,619.2,445.5z"/>
	<path d="M434.2,269.2c-1-2.1-2.2-4.1-3.1-6.3c-6.3-15.8-7.9-32.3-6.2-49.1c2.6-25.4,11.4-48.8,21.9-71.7c1.7-3.8,3.2-7.7,4.4-11.6
		c6.1-21,18.1-38.1,33.9-52.8c14.7-13.6,31.6-24,48.9-33.8c5.5-3.1,11.1-4.3,17.2-4.4C567.7,39,584,40.7,600,44
		c21,4.4,41.9,9.2,62.9,13.8c5.6,1.2,11.2,2.1,16.8,3.5c-0.8,0-1.5,0.1-2.3,0.1c-19.8,0.2-39.3-2.8-58.5-7.6c-2-0.5-4-1-6-1.6
		c-3.6-1-7.1-1.7-11.1-1.1c-7.7,1.2-15.4-0.6-23-1.8c-9.4-1.5-18.8-3-28.2-4.4c-1.9-0.3-3.9-0.1-5.8,0.3c-3.6,0.7-4.8,2.9-3.7,6.4
		c0.3,1,0.8,2.1,1.3,3.4c-9.1-4.5-17.1-1.4-25,2.7c-10.7,5.6-19.7,13.6-28.4,21.9c-4,3.9-7.9,7.9-11.7,11.9
		c-0.6,0.6-1.1,1.7-1.1,2.5c0,16.3-5,31.4-12.5,45.6c-6.3,11.9-13.3,23.6-19.8,35.4c-5.9,10.8-10.3,22.1-13.9,34
		c-2.8,9.2-1.9,18.1-0.6,27.1c1.5,10.3,3.5,20.5,5.3,30.8c0.1,0.6,0.1,1.3,0.2,1.9C434.7,269,434.5,269.1,434.2,269.2z"/>
	<path d="M1054.9,181.9c-0.6-1.9-1.3-3.7-1.8-5.6c-2.4-9.2-4.5-18.5-7.2-27.6c-2.7-9.1-7.8-16.9-14.8-23.2c-8-7.3-18-10.6-28.6-12
		c-8.1-1.1-16.2-0.8-24,1.8c-8.3,2.8-14.9,7.5-17.5,16.3c-1.7,5.5-1.1,11,0.4,16.5c0.2,0.7,0.4,1.4,0.7,2.5c-2.3,0-4.4-0.2-6.5,0
		c-5.3,0.7-9.7,3.3-13.6,6.7c-5.7,4.9-11.1,10.1-16.8,15c-5.4,4.7-11.3,8.4-18.3,10.4c-0.4,0.1-0.8,0.2-1.5,0.3
		c0.2-0.4,0.2-0.6,0.3-0.7c10.4-7.8,17.6-18.3,23.9-29.4c5.3-9.4,10.6-19,16.1-28.3c3.6-6.1,8.3-11.4,13.8-15.9
		c9.2-7.5,19.9-11.1,31.7-10.5c24.3,1.2,43.9,11.6,57.6,32c8.3,12.4,11.3,26.2,9,41.1c-0.5,3-1,6-1.6,9c-0.1,0.5-0.4,0.9-0.7,1.3
		C1055.4,181.8,1055.2,181.9,1054.9,181.9z"/>
	<path d="M1040.7,312c2.7-4.8,5.2-10.2,10.2-13.9c2.2-1.6,4.6-2.3,7.5-1.9c13.9,2.3,24.8-3.5,31-16.3c3.8-7.8,5.7-16.1,6.5-24.7
		c1-10.1,1.7-20.3,2.1-30.5c0.2-4.7-0.5-9.5-0.7-14.3c-0.7-14.9-1.1-29.9-2.3-44.8c-1.6-20.7-6.5-40.5-18.5-58
		c-0.4-0.6-0.8-1.2-1.3-1.8c-0.4-0.5-0.8-1.1-1.3-1.9c0.4,0.1,0.6,0.1,0.7,0.2c12.8,14.2,25,29,33.5,46.3c2.2,4.4,3.6,9.2,5.2,13.9
		c0.3,0.8,0,2.1-0.6,2.7c-7.7,8.5-11.3,18.7-12.4,30c-1.2,12.2,0.4,24.4,1.6,36.5c1.1,10.7,2.5,21.3,1.5,32
		c-0.6,6.1-1.9,12.1-3.1,18.2c-0.7,3.6-1.7,7-2.6,10.6c-0.5,2-1,4-1.8,6c-3,7.6-8.5,10.9-16.5,9.7c-5.6-0.8-11.1-2.1-16.6-3.1
		c-4.4-0.8-9-1.4-13.2,0.3C1046.5,308.5,1043.6,310.5,1040.7,312z"/>
	<path d="M523.4,392.9c2.2,6,4.5,12.1,6.7,18.1c6.1,16.4,12.3,32.7,20.9,48c1.5,2.6,1.5,6,2.2,9c3.6,16.3,10.2,31.4,18.8,45.6
		c8.5,14.1,17.6,27.8,26.3,41.7c1.6,2.5,2.7,5.4,3.7,8.3c1.2,3.7,2.1,7.6,3,11.4c0.2,0.8,0.3,1.5,0.4,2.3c-0.2,0.1-0.4,0.1-0.5,0.2
		c-0.9-2.1-2-4.3-2.8-6.5c-3.6-10.2-8.5-19.6-15.3-28c-1.5-1.8-3-3.5-4.8-5c-2.6-2.1-4.7-1.2-4.7,2.1c-0.1,3.8,0.1,7.6,0.8,11.3
		c3,15.2,7.9,29.7,16,43c1.5,2.5,2.6,5,3.5,7.8c4,12.8,8.3,25.6,12.4,38.4c0.6,2,1.2,3.9,1.9,6.2c-0.5-0.3-0.7-0.3-0.8-0.5
		c-5.7-10.8-11.8-21.4-17-32.3c-8.3-17.4-13.4-36-18.9-54.5c-4.2-14.2-8.2-28.4-13-42.4c-3.7-10.8-8.5-21.2-12.5-31.9
		c-11.1-29.4-20.1-59.5-26.5-90.4c-0.1-0.6-0.2-1.2-0.3-1.7C523.1,393,523.3,392.9,523.4,392.9z"/>
	<path d="M741.2,952c0-3.2-0.2-7.1,0-11c1.1-17.4,5-34.3,8.4-51.2c3.5-17.1,7-34.2,6.7-51.7c-0.1-8.6-1.3-17.2-2.3-25.7
		c-1.6-13.8-2.2-27.7-0.8-41.4c2.3-22.9,5.3-45.6,8-68.4c2.4-20,4.7-40,2.6-60.1c-0.9-9,1.6-17,3.8-25.2c4.7-17.4,9.1-35,15.7-51.8
		c2.7-6.8,5.8-13.5,8.7-20.2c0.2,0.1,0.4,0.2,0.7,0.3c-0.2,0.6-0.4,1.3-0.6,1.9c-9.2,25.1-15.5,51-19.9,77.4
		c-4.9,28.8-7.7,57.8-9,87c-1.3,28.4-2.1,56.8-3.1,85.2c-0.2,6.6-0.6,13.2-0.7,19.9c0,4.2,0.5,8.5,0.6,12.7
		c0.6,15.2-0.8,30.3-3.8,45.3c-3.7,18.6-7.8,37.1-11.5,55.7C743.3,937.8,742.3,945.3,741.2,952z"/>
	<path d="M663.2,541.9c5.5,19.2,10.5,38.1,12.7,57.6c2,17.9,4.1,35.8,6.2,53.6c0.2,2,0.3,4.1,0.9,5.9c2.3,7.1,0.3,14.1-0.6,21.2
		c-1.5,12.4-1.2,24.8,0.3,37.2c2.1,16.9,4.6,33.7,6.7,50.6c1.3,10.7,1.5,21.5,1.2,32.3c-0.1,4.5,1.1,9.1,1.9,13.6
		c4.1,23.6,5.2,47.3,4,71.2c-0.8,15.9-2.4,31.7-3.6,47.6c-0.4,5-0.6,9.9-1,14.9c-0.1,0.9-0.4,1.8-0.5,2.7c-0.2,0-0.5,0-0.7,0
		c-0.3-2-0.8-3.9-0.9-5.9c-0.8-10.1-0.9-20.2,0.6-30.3c0.1-0.4,0.1-0.9,0.1-1.3c-0.4-28.7-0.7-57.4-1.1-86.2
		c-0.1-7.7-0.3-15.3-0.8-23c-0.8-10.7-2-21.5-3.1-32.2c-1.4-15-3-29.9-4.2-44.9c-1.4-16.4-2.7-32.8-3.8-49.2
		c-0.6-9.3-0.9-18.6-1.1-27.9c-0.3-18.9-2.4-37.7-5.2-56.4c-2.5-16.4-5.2-32.8-7.7-49.1C663.2,543.5,663.2,543,663.2,541.9z"/>
	<path d="M867.8,467.1c2.9-1.3,5.8-2.8,8.8-4c13.4-5.1,26.9-10,40.2-15.2c12.5-4.9,24.3-11.2,34-20.8c1.9-1.9,3.7-4,5.5-6.1
		c2.4-2.9,4.2-6,4.7-10c1.5-10.9,8.1-18.5,17.8-23c7.7-3.6,15.9-6.1,23.9-9.2c5.4-2.1,10.9-3.9,16.1-6.4c7.8-3.8,12.1-10,11-19.1
		c-0.4-3-1.2-6-2.2-8.8c-0.9-2.3-1-4.4-0.4-6.7c1.1-4.1,2-8.2,3.1-12.3c0.2-0.8,0.6-1.6,0.8-2.4c0.2,0,0.4,0,0.6,0
		c0.1,1.3,0.3,2.6,0.4,4c0.9,9.2,1.7,18.3,2.7,27.5c0.3,2.5,1.3,5.1,2.3,7.4c0.7,1.6,0.4,2.5-0.8,3.4c-4.7,3.3-9.4,6.8-14.3,9.8
		c-7.2,4.4-14.8,8.2-22.1,12.6c-10.6,6.5-19.5,14.7-24.2,26.6c-1.1,2.9-2.9,4.8-5.3,6.5c-15.6,11.3-31.5,22.2-48.7,30.9
		c-15,7.5-30.6,13-47.3,15.2c-2.2,0.3-4.3,0.4-6.5,0.7C867.9,467.5,867.8,467.3,867.8,467.1z"/>
	<path d="M985.8,414.7c-0.8,4.4-1.6,8.9-2.4,13.3c-3.4,18.6-6.9,37.1-12,55.3c-5.1,18.3-11.9,36-21.3,52.6
		c-3.2,5.7-4.3,12.2-5.1,18.6c-0.9,6.3-1.5,12.7-2.2,19c-0.1,0.7-0.3,1.4-0.7,2.2c-2.3-4.8-2.6-10.1-3.9-15.2
		c-2.2,1.5-4.3,3.1-6.5,4.4c-1.6,1-3.7,2.6-5.2,1.1c-1-1-1.2-3.6-0.7-5.1c2.4-8.1,5.2-16.1,7.9-24.1c3.2-9.7,6.6-19.4,9.7-29.1
		c0.9-3,1.1-6.3,2.1-9.5c0.4,0.8,0.7,1.7,1.1,2.5c1,1.9,1.6,4.3,4.2,4.4c2.4,0.1,3.6-2,4.6-3.8c1.6-3.1,3.3-6.2,4.4-9.5
		c3.8-11.3,7.3-22.8,11.1-34.1c4.7-14.1,9.4-28.1,14.2-42.2c0.1-0.3,0.2-0.6,0.4-0.9C985.6,414.7,985.7,414.7,985.8,414.7z"/>
	<path d="M613.8,256.9c0.8-4.7,1.6-9.4,2.3-14c1.4-9,3.3-18,2.5-27.3c0-0.6,0.1-1.2,0.3-1.7c5.7-15.4,4.2-30.5-1.9-45.4
		c-4.1-10-9.8-19.2-15.6-28.3c-7.5-11.8-14.8-23.7-22.2-35.5c-0.5-0.7-0.8-1.6-0.9-2.5c0.7,1,1.4,1.9,2.1,2.9
		c6.7,9,13.5,18,19.9,27.2c7.3,10.4,13.2,21.5,17.1,34.1c1.3-2.2,2.9-4.3,3.7-6.6c2.3-6.6,4.4-13.2,6.2-20c3-11,5.5-22.2,10.2-32.7
		c4.1-9.1,9.6-16.9,18.2-22.3c4-2.5,7.7-5.4,11.5-8.1c0.6-0.4,1.2-0.8,2.1-0.8c-0.7,0.7-1.3,1.4-2,2.2c-6.4,7.4-13.1,14.7-19.2,22.3
		c-3.8,4.7-6.7,10.2-7.7,16.4c-0.1,0.6-0.4,1.1-0.7,1.6c-6.3,11.1-9.2,23.1-9.2,35.7c0,11.8,0.9,23.6,1.5,35.4
		c0.7,13.9,0.2,27.7-5.1,40.8c-0.6,1.5-1.3,3-1.9,4.5c-3,6.4-6.1,12.9-9.1,19.3c-0.5,1-1,2.1-1.6,3.1
		C614.3,257,614.1,256.9,613.8,256.9z"/>
	<path d="M880.7,824.5c-0.4-1.9-1.1-3.8-1.2-5.8c-0.7-8.5,1.2-16.7,2.9-24.9c1.3-6.3,2.7-12.5,4-18.8c0.3-1.3-0.2-2.7-0.3-4.1
		c-1.2,0.8-2.6,1.3-3.5,2.4c-2.2,2.6-4.2,5.4-6.6,7.9c0.5-1,0.9-2,1.5-2.9c7.9-13.9,15.9-27.7,23.7-41.7
		c7.7-13.9,14.8-28.2,19.1-43.6c1.7-5.9,2.8-12,3.7-18.1c0.9-6.1-3.6-9.6-9.3-7.2c-3,1.3-5.8,3.3-8.9,4.8c2.7-3.4,4.8-7.5,8.1-10
		c7.4-5.7,12-13.1,15.2-21.6c4.2-10.9,6.1-22.4,7.6-33.9c0.6-4.3,1.2-8.6,2.3-12.9c-0.2,2.9-0.3,5.9-0.5,8.8
		c-1.7,25.3-4.3,50.5-9.4,75.4c-3.2,15.5-7.4,30.8-13,45.6c-0.3,0.9-0.7,1.8-1.2,2.6c-12.9,19.2-21.1,40.4-26.3,62.8
		c-2.6,11.1-4.5,22.4-6.8,33.7c-0.1,0.4-0.2,0.8-0.3,1.3C881.2,824.4,880.9,824.4,880.7,824.5z"/>
	<path d="M921.1,80.5c-4-7.6-10.6-9.9-17.9-9.8c-9.5,0.1-19,1.1-28.5,1.9c-7.6,0.6-15.1,1.3-22.7-0.2c-0.7-0.1-1.4-0.4-2.2-0.9
		c3-0.6,6.1-1.2,9.1-1.7c19.2-3,38.4-6.4,57.8-8.8c14.8-1.8,29.8-2.1,44.7-3.1c3.4-0.2,6.8-0.5,10.1-1.3c15.5-4.1,30.4-1.8,44.9,4.4
		c13.9,5.9,26,14.6,37.6,24.2c1.4,1.1,2.7,2.3,4,3.7c-0.3-0.1-0.6-0.1-0.9-0.3c-16.1-11.3-34.3-17.6-53.5-21.1
		c-16.1-2.9-32.5-3.9-48.8-4.8c-2.1-0.1-4.1-0.7-6.1-1c-13.1-2.3-23,3.9-26.8,16.6C921.6,78.8,921.4,79.5,921.1,80.5z"/>
	<path d="M613.7,577.4c1.3,15.8,2.9,31.5,3.9,47.3c1.4,21.4,2,42.8,5.1,64c1.7,11.4,4.4,22.8,6.8,34.1c2.6,12.4,4.2,24.9,5.1,37.5
		c1.4,19.2,2.5,38.5,4.2,57.6c1.2,13.9,4.2,27.4,7.6,40.9c1.7,6.6,1,13.7,1.4,20.6c0,0.6-0.3,1.2-0.5,1.8c-0.2,0.1-0.4,0.1-0.6,0.2
		c-0.6-1.2-1.4-2.3-1.7-3.6c-1.9-7.6-4-15.2-5.3-23c-1.1-7.1-1.5-14.3-1.7-21.5c-0.6-19.2-3-38.2-6.2-57.2
		c-3.7-21.8-7.8-43.6-11.1-65.5c-2.5-16.4-4.5-32.8-6.1-49.3c-0.9-8.9-0.7-17.8-0.8-26.8c-0.2-16.3-0.3-32.6-0.5-48.9
		c0-2.8-0.3-5.6-0.5-8.4C613.1,577.4,613.4,577.4,613.7,577.4z"/>
	<path d="M859.2,1001.9c-0.4,4.3-2.2,8.1-4.9,11.4c-4.9,6-11.4,9.8-18.5,12.3c-18.8,6.6-37.8,7.5-56.8,1.1
		c-4.9-1.7-9.3-4.2-13.3-8.5c11.1,2.5,21.6,5.1,33,1.3c-2.2-1.7-4-3-5.8-4.3c-2-1.4-4.1-2.7-6-4.2c-1.7-1.4-1.5-2.7,0.7-3
		c5-0.7,10-1.1,15-1.6c0.4,1.3,0.6,2.2,0.9,3c2,6.5,6.6,9.7,13.4,9.3c4.7-0.3,8.9-1.8,12.4-4.8c0.6-0.5,0.8-1.6,1.2-2.4
		c-0.8-0.3-1.7-0.9-2.4-0.8c-3.2,0.4-6.3,1.1-9.8,1.7c0.1-1.8,0-3.7,0.3-5.4c0.4-2.4,2-3.8,4.4-3.6c2.9,0.3,5.7,0.9,8.5,1.6
		c4.5,1.2,8.9,2.9,13.5,3.8c2.5,0.5,5.4,0.2,7.9-0.4C856,1007.8,857.7,1005,859.2,1001.9z"/>
	<path d="M901.9,284.6c-2.5,5.2-5,10.4-7.6,15.5c-9.2,17.8-20,34.6-32.1,50.6c-1,1.4-1.4,2.7-0.9,4.3c0.5,1.7,0.6,3.5,1.2,5.2
		c2.4,7.1,0.6,14-1,20.8c-0.2,0.9-0.3,2.4,0.1,2.6c1.1,0.4,2.6,0.8,3.5,0.3c1.7-1,3.5-2.3,4.4-3.9c3-5.2,6.1-10.4,8.2-16
		c4.1-10.9,7.6-22.1,11.3-33.1c0.3-1,0.7-2.1,0.8-2.5c0.3,16.7-6.5,31.8-14.7,46.4c-4.9,8.8-9.5,17.7-14.1,26.6
		c-0.6,1.1-0.6,2.8-0.3,4c2.7,10.2,3.1,20.6,2.5,31c-0.3,5.7-0.8,11.4-1.2,17.1c0,0.6-0.1,1.1-0.7,1.7c-0.3-2.4-0.7-4.8-0.9-7.3
		c-0.7-9.7-1.2-19.5-1.9-29.2c-0.1-0.9-0.1-1.8-0.4-2.6c-3.6-10.8-4.8-22-4.2-33.2c0.6-11.7,1.7-23.4,2.5-35.2
		c0.2-2.1,0.2-4.3,0.7-6.5c0.9,2,1.8,4,2.9,6.3c15-20.6,28.7-41.6,41.4-63.3C901.6,284.5,901.7,284.5,901.9,284.6z"/>
	<path d="M860.4,190.2c-11.9-11.7-25.2-21.5-39.3-30.4c-17.3-11-36.2-14.8-56.3-12c-13.8,1.9-27.5,4.6-41.3,7
		c-4.7,0.8-9.4,1.5-14.1,1.7c6.7-1.5,13.4-3,20.1-4.6c12.5-2.8,24.9-5.6,37.4-8.4c3.5-0.8,6.8-2.2,10.3-2.7c7.7-1.1,14.8,1.3,22,3.7
		c7.1,2.4,14.1,5,21.4,7c5.8,1.6,11.8,1.2,17.6-0.7c4.6-1.5,9.4-2.4,14.3-1.6c1.8,0.3,3.6,0.9,5.2,1.8c2.4,1.4,2.4,3.8-0.1,5.1
		c-1.8,1-4,1.7-6.1,1.9c-3.5,0.3-7.1,0.1-11.1,0.1C848.5,168.1,854.7,179,860.4,190.2z"/>
	<path d="M604.4,178.5c-5.8,3.6-10.9,8.1-14.9,13.5c-5.7,7.5-11,15.3-16.5,23c-0.4,0.5-0.6,1.4-0.5,2.1c2.3,14-2.3,26.3-9.3,37.9
		c-6.1,10-12.2,19.9-18.3,29.8c-1.2,2-1.9,4.2-3.2,6.1c-2.7,4-5.6,7.8-8.9,11.5c0.3-0.7,0.7-1.3,1-2c3.1-6.2,6.7-12.1,9.1-18.6
		c2.8-7.6,4.6-15.6,6.8-23.5c4.3-15.3,8.9-30.5,16.5-44.6c7-12.9,16-24,29-31.4c2.9-1.6,5.9-2.9,8.9-4.4
		C604.2,178.2,604.3,178.3,604.4,178.5z"/>
	<path d="M657.3,481.2c7.4-9.1,15-18.1,25.3-24.1c3.4-2,7.1-3.4,10.8-4.6c5-1.6,10.1-0.9,15.3-0.6c7.9,0.4,15.9,0.2,23.8-0.2
		c9.5-0.4,19-1.2,28.4,1.1c0.3,0.1,0.6,0.1,0.9,0.2c4.8,1.1,8.9,3.3,11.8,7.7c3.7,5.6,7.9,10.8,11.9,16.2c0.8,1,1.3,2.2,1.7,3.6
		c-0.3-0.2-0.8-0.3-1-0.6c-4.2-4.5-8.7-8.8-12.4-13.7c-4.5-5.8-10.3-8.1-17.2-8.3c-3.2-0.1-6.4,0.1-9.6,0.2
		c-6.8,0.4-13.5,0.5-20.2-0.7c-12.8-2.2-24.7,0.9-35.9,6.9c-6.3,3.4-12.3,7.6-18.6,11c-4.7,2.5-9.7,4.2-14.6,6.3
		C657.5,481.5,657.4,481.4,657.3,481.2z"/>
	<path d="M762.2,1010.8c-2,12.3-11.5,21.4-24.7,23.7c-10.5,1.8-20.8,0.6-31-1.6c-17.9-3.8-34.8-10.6-51.5-17.9
		c-0.7-0.3-1.1-1.2-1.6-1.8c0.7-0.2,1.5-0.8,2.1-0.7c3.8,0.9,7.6,1.9,11.4,3c11.1,3.2,22,6.6,33.1,9.6c5.6,1.5,11.4,1.7,17.3,0.9
		c3.1-0.4,6.4,0.6,9.5,0.5c5.4-0.3,10.9-0.6,16.1-1.8c7.4-1.7,13.3-6.2,17.7-12.4c0.3-0.5,0.7-1,1.1-1.4
		C762,1010.9,762.1,1010.8,762.2,1010.8z"/>
	<path d="M681.6,520.6c2.8-0.2,5.6-0.4,8.3-0.6c12.3-0.6,24.5-0.9,36.8,0.8c12.1,1.7,23.6,4.9,33.3,12.8
		c5.9,4.8,10.1,10.8,12.9,17.9c0.2,0.4,0.2,0.8,0.4,1.5c-0.5-0.3-0.8-0.4-1-0.5c-11.5-10.2-25-16.7-39.7-20.5
		c-14.3-3.6-28.9-6.4-43.3-9.5c-2.5-0.5-5.1-1-7.6-1.5C681.7,520.9,681.7,520.7,681.6,520.6z"/>
	<path d="M792.3,277.1c-9.2-2.1-18.3-4.2-27.5-6.2c-14-3.1-28.1-5.1-42.5-4.8c-16.4,0.4-31.8,4.3-45.6,13.3
		c-0.3,0.2-0.7,0.4-1.5,0.8c12.1-12.3,26.1-19.9,43-21.6c19.2-2,37.4,2.1,55.1,9.1c5.9,2.3,11.5,5.2,17.2,7.9
		c0.6,0.3,1.2,0.7,1.9,1.1C792.4,276.8,792.4,277,792.3,277.1z"/>
	<path d="M836.8,61c-4-0.9-7.9-2.1-11.9-2.7c-14.9-2.2-29.8-2.3-44.3,2.9c-2.3,0.8-4.6,1.8-6.6,3.3c-2.2,1.6-4.5,1.8-7,2.1
		c-8.9,1.2-17.7,2.8-26.6,4.2c-8.9,1.5-17.8,3.2-26.8,4.4c-6.3,0.8-12.6,0.1-18.5-2.8c-3.6-1.8-6.3-4.5-8.3-8.4
		c0.4,0.1,0.7,0.1,1,0.2c12.5,5,25.4,5.8,38.6,4.4c4-0.4,8-0.2,12-0.5c10.6-0.7,20.5-4,30.5-7.1c9.8-3,19.6-6.1,29.5-8.4
		c9.9-2.3,20-2.3,29.4,2.4c3.1,1.6,6,3.7,9,5.6C837,60.7,836.9,60.9,836.8,61z"/>
	<path d="M795.4,326.7c-6.7-2.8-13.1-6-19.7-8.2c-12.5-4.1-25.5-4.6-38.6-3.5c-16.5,1.4-32.5,5.4-48.3,10.3
		c-6.8,2.1-13.5,4.5-20,6.7c0.3-0.2,0.8-0.7,1.4-1c17.7-11.5,36.8-19.3,57.7-22.3c17.3-2.5,34.3-1.2,50.3,6.5
		c5.7,2.8,10.9,6.3,15.7,10.6C794.3,326.2,794.9,326.4,795.4,326.7z"/>
	<path d="M843.9,890.6c-3.3-17.2-4.2-34.3,1.4-51.1c4.2-12.5,9-24.8,13.7-37.2c5-13.1,8.8-26.4,10.8-40.4c1.8-12.5,5.3-24.8,8-37.3
		c5.9-26.7,11.7-53.4,17.6-80.1c0.2-1,0.4-2,1-2.9c-0.8,4.4-1.5,8.9-2.4,13.3c-6.8,33-13.3,66.2-20.5,99.1
		c-5.3,24.4-11.5,48.6-17.4,72.9c-0.1,0.5-0.2,1.1-0.5,1.5c-5.6,6.2-7.4,13.9-8.3,21.7c-1.5,12.3-2.2,24.7-3.2,37.1
		C844,888.3,844,889.4,843.9,890.6z"/>
	<path d="M825.3,497.7c0.4,0.6,0.8,1.2,1.1,1.8c4,8.9,5.8,18.3,4.3,28c-0.6,4-2.2,7.5-6.6,9.1c2.3,3.2,4.8,6,8.6,7.2
		c3.3,1.1,6.4,0.2,8.6-2.3c2.6-3,5.2-6.2,6.8-9.8c6.2-14.3,8.1-29.3,5-44.7c-0.8-3.7-2.5-7.2-3.9-11.1c1.2-0.9,2.6-0.5,3.5,1
		c1.2,2.1,2.3,4.4,2.8,6.7c3.6,17,2.9,33.8-3.2,50.3c-0.4,1.2-1.1,2.3-1.6,3.4c-3.9,8.1-10.7,11.6-19.4,12c-2.1,0.1-4.3,0-6.4-0.5
		c-2.7-0.6-4.6-2.5-4.7-5.3c-0.1-3.3,0.1-6.7,0.7-9.9c0.9-4.6,2.3-9.1,3.4-13.6C825.9,512.7,827.5,505.4,825.3,497.7z"/>
	<path d="M878.5,831.9c-0.2,2.3-0.2,4.6-0.5,6.9c-1.6,10.3-3.3,20.5-4.9,30.8c-0.2,1.5-0.4,3.1-0.5,4.6c-0.6,15.2-0.6,30.4-1.8,45.5
		c-1.4,18.8-6,36.9-14.6,53.9c-0.3,0.7-0.7,1.3-1.4,1.8c0.2-0.8,0.4-1.6,0.7-2.3c2.8-9.3,5.8-18.4,8.2-27.8c3-11.5,3.1-23.2,2.6-35
		c-0.4-9.8-0.8-19.6-0.7-29.4c0.1-8.4,2.2-16.6,4.8-24.6c2.3-7.1,4.2-14.4,6.3-21.6c0.3-1,0.7-2,1.1-3
		C878,831.8,878.3,831.8,878.5,831.9z"/>
	<path d="M690.2,376.3c4.6-0.9,9.2-2.1,13.9-2.7c22-2.6,43.6-0.6,64.6,7c6.1,2.2,11.9,5.2,16.6,9.7c2.8,2.7,5,5.8,5.6,9.9
		c-5.1-2.8-9.9-5.7-14.9-8.2c-19.4-9.6-40-14.6-61.7-14.5c-8,0-15.9,0-23.9,0C690.3,377,690.3,376.6,690.2,376.3z"/>
	<path d="M906.4,398.8c31.6-23.3,55.5-52.4,68.9-89.7c-3.2,19.8-9.6,38.3-21.8,54.5C941.2,379.9,925.1,391.1,906.4,398.8z"/>
	<path d="M765,786.7c6.8-50.2,9.2-100.7,12.5-151.2c0.5,25.4,2.6,50.7,0.9,76.1c-1.7,25.4-7.5,50.2-12.1,75.2
		C765.9,786.8,765.4,786.8,765,786.7z"/>
	<path d="M798.7,670c22.4-44.3,38.5-91.3,60.7-135.8c-0.2,1.2-0.4,2.4-0.7,3.7c-5.5,23.4-14.3,45.6-25.2,67
		c-11,21.7-22.4,43.1-33.7,64.6c-0.1,0.3-0.4,0.5-0.6,0.8C799.1,670.2,798.9,670.1,798.7,670z"/>
	<path d="M710.5,977c-3.1-2.1-6.5-3.9-9.3-6.3c-4-3.5-6.6-8.2-7.8-13.5c-0.2-0.9-0.3-1.9-0.2-2.9c0.1-3.3,2.1-4.9,5.2-3.8
		c2.5,0.9,4.9,2.4,7.2,3.9c1.5,0.9,2.8,2.2,4.2,3.4c1.9-1.4,3.6-2.9,5.5-4.1c4.5-3,9.4-5.1,15-5c7.9,0.2,11.6,5.9,8.4,13.1
		c-2.5,5.6-6.9,9.6-11.6,13.3c2.4-5.8,4.8-11.6,7.3-17.8c-3.9,0.7-7,1.2-10.2,1.7c-5.4,0.9-10.9,1.6-16.3,2.7
		c-2.3,0.4-5.1,1-5.6,3.7c-0.6,2.7,1.7,4.3,3.6,5.8c2.4,1.9,5,3.5,7.5,5.3c0.5,0.4,1.1,0.7,1.5,1.4C713.4,977.5,712,977.3,710.5,977
		L710.5,977z"/>
	<path d="M874.4,306.4c-1.6,3.5-4.5,4.8-7.7,5.2c-6.6,1-12.9-0.3-18.6-3.9c-0.6-0.4-1.2-0.9-1.8-1.4c-3.2-3-3.4-6.6,0.1-9.4
		c2.3-1.8,3.7-4,5.1-6.5c3.5-6.2,9-9.4,16.2-9.1c1,0,2.1,0.2,3.1,0.6c4.1,1.4,5.3,4.9,2.6,8.2c-3.5,4.2-7.8,7.3-13.3,8.3
		c-2.5,0.5-5,1-7.4,1.6c-0.9,0.2-1.6,0.8-2.4,1.2c0,0.2,0,0.5,0,0.7c0.9,0.4,1.9,1.1,2.8,1.3c5.9,1,11.7,1.8,17.6,2.7
		C871.8,306.2,873,306.2,874.4,306.4z"/>
	<path d="M633.3,299.3c2.9-0.8,5.7-1.6,8.6-2.4c0.8-0.3,1.7-0.6,2.4-1.1c2.3-1.3,2.4-2.6,0.3-4c-2.4-1.6-5.1-2.7-7.6-4.2
		c-2.3-1.3-4.6-2.5-6.6-4.1c-3.9-3.1-4-6.4-0.5-10.1c0.9-0.9,1.9-1.7,2.8-2.5c2.1,2.3,4.1,4.5,6.2,6.6c1.1,1.1,2.3,2.1,3.7,2.9
		c0.6,0.4,1.6,0.5,2.2,0.3c0.4-0.2,0.7-1.4,0.5-2c-1.7-7.3-5.4-13.4-11.8-17.4c-3.3-2.1-6.6-1.3-9.2,1.7c-0.7,0.8-1.2,1.6-2,2.3
		c0.9-3.4,2.2-6.6,5.4-8.5c2.2-1.3,4.6-1,6.5,0.4c2.2,1.5,4.3,3.3,5.9,5.3c6.2,7.9,10,16.9,10.8,26.9c0.2,2,0,4-0.5,6
		c-1,4.3-3.8,6.5-8.2,6.2c-3-0.2-6-1.2-9-1.9C633.2,299.8,633.2,299.6,633.3,299.3z"/>
	<path d="M796.3,529.5c8-10.6,10.9-23.1,13.3-35.6c1.6,1.4,3.1,2.9,4.7,4.1c1.3,1,2.4,0.7,3.4-0.8c5.3-7.7,10.7-15.4,17.4-22
		c7-6.9,15.1-11.8,25-13.2c0.6-0.1,1.2-0.1,1.4-0.1c-4.2,2.7-8.9,5.3-13.1,8.5c-9.9,7.4-17.6,17-25.2,26.7
		c-7.4,9.5-14.8,19-22.3,28.4c-1.2,1.6-2.7,2.9-4.1,4.4C796.7,529.8,796.5,529.6,796.3,529.5z"/>
	<path d="M750.4,1007.3c-30-5.2-60-8.4-90.4-2.6c-0.1-0.2-0.2-0.5-0.3-0.7c2.6-1.5,5.1-3.2,7.8-4.5c10.2-4.8,21.1-5.4,32.1-4.6
		c16.9,1.1,33.1,5.2,48.8,11.5C749.1,1006.6,749.7,1007,750.4,1007.3z"/>
	<path d="M642.7,1001.2c-1.7-7.5-1.6-15.4-0.2-23.1c2.3-12.6,5.2-25.2,7.4-37.8c1.4-7.8,1.9-15.8,2.9-24.3
		c0.1,6.5,0.2,12.5,0.2,18.5c0,0.7,0,1.4,0.2,2c4.6,10.6,3.3,21-1.1,31.4c-2,4.6-4,9.1-5.8,13.8c-1.2,3.2-2.3,6.5-2.9,9.8
		C643,994.7,643,998.1,642.7,1001.2z"/>
	<path d="M901.7,214.5c10.3,3.6,10.3,3.6,14.7-1.8c-1,22.1-1.1,44.2-6.6,65.8C910.5,256.8,912,234.9,901.7,214.5z"/>
	<path d="M836.2,880.1c-14,1.4-46.3-21.1-51.6-39.1c8.7,7.1,16.8,14.1,25.3,20.6C818.4,868,827.3,873.9,836.2,880.1z"/>
	<path d="M694.3,750.4c5.1-5.8,11.5-9,18.9-9.3c7.5-0.3,15,0.2,22.5,0.9c6.1,0.6,13.1,9,13.3,15.2c0,0.6-0.2,1.5-0.6,1.7
		c-0.4,0.2-1.4,0-1.8-0.3c-1.9-2-3.7-4.1-5.6-6c-0.9-0.9-1.9-1.9-3-2.4c-9.6-4.1-19.7-4.3-29.8-2.7
		C703.5,748.2,699.1,749.4,694.3,750.4z"/>
	<path d="M754.1,906c7,30.3,15.1,60.4,14.8,91.8C763.1,967.4,755,937.3,754.1,906z"/>
	<path d="M695.7,627.5c17.9-2,33.5-9.6,49.7-15.6c1.1-0.4,2.2-0.7,3.6-0.6c-0.6,0.5-1.2,1.1-1.9,1.6c-7.3,4.8-14.6,9.7-22.1,14.3
		c-4.8,3-9.9,5.1-15.7,5.4C704.2,632.9,699.8,631.3,695.7,627.5z"/>
	<path d="M841.7,915.4c-0.9,13.7-0.4,27.3,1.6,40.9c2,13.6,5.1,26.8,11.7,39.1c-0.5-0.5-1-1.1-1.5-1.6c-9.8-11.5-15-24.8-15.9-39.8
		C836.8,940.9,839,928.1,841.7,915.4z"/>
	<path d="M834.8,913.9c-3.6,5.4-8.1,9.4-15.1,10.2c-10.5,1.3-20.6-0.5-30.4-3.9c-3.5-1.2-6.9-2.6-10.2-4.5c4.2,0.3,8.3,0.6,12.5,0.9
		c4.9,0.4,9.8,0.7,14.7,1.2c2.9,0.3,5.8,1.4,8.5,0.9c5.4-1,10.6-2.8,15.8-4.3c1.3-0.4,2.6-0.8,3.9-1.2
		C834.5,913.4,834.7,913.7,834.8,913.9z"/>
	<path d="M700,680.4c11.1-2.2,22.2-4.5,33.4-6.5c4.1-0.8,8.4-1.2,12.6-1.5c1.9-0.1,4.4-0.3,5.2,2c0.8,2.3-1.1,4-2.4,5.7
		c-0.3,0.4-1.2,0.6-1.8,0.6c-14.3,0-28.5,0-42.8,0c-1.4,0-2.9-0.3-4.3-0.5C699.9,680.2,699.9,680.3,700,680.4z"/>
	<path d="M621.6,470.7c-2.2,6.6-4.6,13.2-6.7,19.8c-2.9,8.9-4.9,17.9-5.9,27.2c-0.6,5.2,0,10.4,1.4,15.5c0.2,0.8,0.5,1.6,0.9,2.3
		c1.8,3.8,4.6,4.6,7.9,2.1c1.9-1.5,3.4-3.5,5.1-5.3c0.7-0.8,1.2-1.7,2.2-3.1c-0.9,4.9-1.9,9.1,0.4,13.4c-3.6,2.5-7.2,4.7-11.7,4.8
		c-3.3,0.1-5.7-1.7-6.6-4.7c-1-3-1.7-6.2-1.8-9.3c-0.4-12.2,2.2-24,5.5-35.6c2.4-8.4,5.5-16.6,8.2-24.9c0.3-0.8,0.7-1.5,1-2.2
		C621.4,470.7,621.5,470.7,621.6,470.7z"/>
	<path d="M877.7,94.8c10.3,3.9,18.7,10.5,25.5,19.1c6.6,8.4,11.4,17.7,14.8,27.8c-0.2,0.2-0.5,0.3-0.7,0.5c-1-1.1-2-2.2-2.9-3.5
		c-5.4-7.3-10.6-14.7-16.1-21.9C892.1,108.7,885.8,100.9,877.7,94.8z"/>
	<path d="M708.9,707.1c14.8-0.4,29.8-3.4,44.2,3.3c-1.1,2.2-2.9,3.3-4.9,3.3c-4.6-0.1-9.4-0.1-13.9-0.9
		C725.8,711.2,717.3,709.1,708.9,707.1z"/>
	<path d="M650,1002.5c-3.1-6.4-1.9-13.3,3.4-17.3c7.4-5.6,15.8-6.7,24.7-5.3c0.7,0.1,1.4,1,2.1,1.5c-1.1,0.4-2.3,1.4-3.1,1.1
		c-5-1.8-9.4-0.4-13.4,2.6c-5.4,4.1-9,9.6-12.5,15.3C650.9,1001,650.6,1001.6,650,1002.5z"/>
	<path d="M862,114.5c8.9,2.6,16.1,7.7,21.6,15.2c5.7,7.8,8.7,16.8,11.4,26c1.5,5.2,2.8,10.4,3.8,15.8c-0.6-1.6-1.2-3.3-1.9-4.9
		c-3.8-8.8-7.3-17.7-11.6-26.2C879.8,129.7,872.8,120.3,862,114.5z"/>
	<path d="M652.1,885.2c1.4-1.2,2.7-2.5,4.2-3.5c7.3-4.5,15.2-6.9,23.8-7.3c1.5-0.1,4,0.5,4.2,1.3c0.6,2-1.7,2.4-3.1,3.1
		c-5.7,3-12.1,4-18.4,5c-3.5,0.6-7,1.1-10.5,1.7C652.2,885.4,652.2,885.3,652.1,885.2z"/>
	<path d="M781.5,945.3c4.7,1.3,9.5,2.6,14.2,4c4.6,1.4,9.2,0.9,13.6-0.5c4.9-1.6,9.6-3.5,14.4-5.3c1.4-0.5,2.9-0.9,4.7-1.5
		c-7,12.3-33.4,14.3-47.2,4C781.3,945.8,781.4,945.5,781.5,945.3z"/>
	<path d="M812.6,457.2c0.6-19.5,1.2-39,1.8-58.5c0.3,0,0.5,0,0.8,0c0,5.5,0,10.9,0,16.4c0,0.7-0.1,1.5,0.1,2.2
		c2.8,7.8,2.2,15.7,1,23.6c-0.8,5.5-2,10.9-3,16.3C813.1,457.2,812.9,457.2,812.6,457.2z"/>
	<path d="M848.9,283.8c2.9-6.9,6.2-13.6,12-18.5c5.1-4.3,10.6-4.7,16.2-0.9c2.9,2,5.4,4.6,8.1,6.9c-0.1,0.2-0.3,0.4-0.4,0.5
		c-0.5-0.4-1-0.7-1.4-1.1c-6.1-4.8-12.6-5.5-19.5-1.9c-5.7,3-9.9,7.5-13.4,12.8C849.9,282.3,849.4,283.1,848.9,283.8z"/>
	<path d="M658.7,902.5c4.7-1,9.5-2.1,14.2-3c3.2-0.6,6.4-1,9.7-1.3c0.8-0.1,1.6,0.5,2.4,0.8c-0.3,0.8-0.4,1.7-0.9,2.4
		c-2.7,3.6-6.2,5.6-10.8,4.7c-4.9-0.9-9.8-2.1-14.7-3.2C658.7,902.8,658.7,902.7,658.7,902.5z"/>
	<path d="M727.4,996.6c-0.9-6.8,4.6-14,11.7-15.8c3.5-0.9,6.7-0.6,9.2,2.5c1.9,2.3,4,4.3,6.1,6.4c-0.1,0.2-0.2,0.3-0.3,0.5
		c-1.7-0.7-3.3-1.5-5.1-2c-3.3-0.9-6.7-2.2-10.1-2.5c-5.6-0.5-8.9,2.2-10.6,7.5C728,994.3,727.8,995.3,727.4,996.6z"/>
	<path d="M710.5,977c-3.1,0.3-6.2,0.5-9.3,1.1c-5.5,1-10.2,3.2-12.4,9.2c-0.4-5.2,3.2-10.9,7.7-12.4c0.7-0.2,1.6-0.3,2.4-0.1
		C702.8,975.5,706.7,976.3,710.5,977C710.5,977,710.5,977,710.5,977z"/>
	<path d="M809.3,491.7c-1.9-9.9,1-19.3,2.7-28.8c0.3,0,0.5,0,0.8,0.1c-0.9,9.6-1.8,19.2-2.7,28.8
		C809.9,491.7,809.6,491.7,809.3,491.7z"/>
	<path d="M922.6,98.1c-2.4-5.4-2.5-10.9-1.4-16.5C923.6,86.9,923.4,92.5,922.6,98.1z"/>
	<path d="M642.3,497.8c-3,5.1-6.1,10.2-9,15.2C632.4,505.9,637.9,502.1,642.3,497.8z"/>
	<path d="M944.8,496.4c0.9-5.9,1.8-11.8,2.7-17.7c0.4,0.1,0.7,0.1,1.1,0.2c-0.9,5.9-1.9,11.8-2.8,17.7
		C945.5,496.5,945.1,496.5,944.8,496.4z"/>
	<path d="M804.9,282.8c6.3,4.5,12.7,9,19,13.5c-0.2,0.2-0.3,0.5-0.5,0.7c-6.3-4.6-12.5-9.2-18.8-13.8
		C804.7,283.2,804.8,283,804.9,282.8z"/>
	<path d="M549.7,64.8c-2-2.6-3.9-5.1-5.9-7.7c0.3-0.2,0.5-0.4,0.8-0.6c1.9,2.6,3.8,5.2,5.7,7.8C550.1,64.5,549.9,64.6,549.7,64.8z"
		/>
</g>
</svg>
